<svg xmlns="http://www.w3.org/2000/svg" width="260" height="260" viewBox="0 0 260 260" fill="none">
  <rect width="260" height="260" fill="#0F1215"/>
  <g opacity="0.08">
    <circle cx="32" cy="28" r="2" fill="#ffffff"/>
    <circle cx="88" cy="42" r="1.5" fill="#ffffff"/>
    <circle cx="154" cy="34" r="2.2" fill="#ffffff"/>
    <circle cx="224" cy="52" r="1.6" fill="#ffffff"/>
    <circle cx="52" cy="96" r="1.7" fill="#ffffff"/>
    <circle cx="116" cy="82" r="2.1" fill="#ffffff"/>
    <circle cx="186" cy="104" r="1.4" fill="#ffffff"/>
    <circle cx="232" cy="118" r="2" fill="#ffffff"/>
    <circle cx="26" cy="164" r="1.4" fill="#ffffff"/>
    <circle cx="92" cy="146" r="1.9" fill="#ffffff"/>
    <circle cx="160" cy="174" r="1.5" fill="#ffffff"/>
    <circle cx="210" cy="154" r="2.2" fill="#ffffff"/>
    <circle cx="62" cy="218" r="1.8" fill="#ffffff"/>
    <circle cx="128" cy="224" r="1.3" fill="#ffffff"/>
    <circle cx="190" cy="214" r="2" fill="#ffffff"/>
    <circle cx="236" cy="230" r="1.5" fill="#ffffff"/>
  </g>
  <g opacity="0.05" stroke="#ffffff" stroke-width="1">
    <path d="M8 54C22 45 42 45 54 56C66 67 85 71 101 64C113 59 124 49 138 49C154 49 165 61 179 66C194 71 212 67 225 58C235 51 246 50 252 52"/>
    <path d="M-6 132C9 124 24 122 37 129C52 137 65 143 82 140C95 137 107 126 121 126C138 126 146 138 161 143C177 148 194 145 208 137C223 128 239 126 266 133"/>
    <path d="M14 202C29 193 44 192 58 198C72 204 88 212 105 209C121 206 132 194 147 194C164 194 175 205 190 209C207 213 224 208 240 197"/>
  </g>
  <g opacity="0.035" stroke="#ffffff" stroke-width="0.8">
    <path d="M40 0V260"/>
    <path d="M130 0V260"/>
    <path d="M218 0V260"/>
    <path d="M0 38H260"/>
    <path d="M0 126H260"/>
    <path d="M0 216H260"/>
  </g>
</svg>
